<?xml version="1.0" encoding="UTF-8"?>
<svg id="Capa_1" data-name="Capa 1" xmlns="http://www.w3.org/2000/svg" xmlns:xlink="http://www.w3.org/1999/xlink" viewBox="0 0 512 512">
  <defs>
    <style>
      .cls-1 {
        filter: url(#outer-glow-1);
      }

      .cls-2 {
        fill: #1dadda;
      }
    </style>
    <filter id="outer-glow-1" filterUnits="userSpaceOnUse">
      <feOffset dx="0" dy="0"/>
      <feGaussianBlur result="blur" stdDeviation="28.35"/>
      <feFlood flood-color="#1dacd9" flood-opacity=".75"/>
      <feComposite in2="blur" operator="in"/>
      <feComposite in="SourceGraphic"/>
    </filter>
  </defs>
  <g class="cls-1">
    <path class="cls-2" d="m347.76,138.61h29.33v29.33h-29.33v-29.33Z"/>
    <path class="cls-2" d="m460.79,417.23c5.81-5.07,10.69-11.31,14.29-18.51l27.41-54.81h-83.69c-22.88,0-43.44,12.71-53.67,33.17l-9.01,18.03c-34.33-23.61-75.7-36.54-117.41-36.54h-9.24c-12.86,0-24.66-5.57-32.81-14.66h2.99c40.61,0,73.65-32.96,73.8-73.53,141.14-4.37,199.6-75.5,202.1-78.62l6.23-7.8-4.97-8.66c-.82-1.42-20.43-35.28-56.74-69.38-48.73-45.77-104.5-69.96-161.28-69.96-25.58,0-50.56,3.84-74.31,11.22-34.13-17.84-77.08-27.45-116.9-25.87l-6.97.27-4.19,5.58C25.03,69.04,11.68,122.75,19.79,174.52c1.67,10.67,3.23,19.23,4.63,25.47-18.68,51.45-14.3,92.71-14.79,99.85h.45c7.53,108.03,96.29,191.02,204.63,191.02,39.65,0,79.78-11.38,115.21-34.99l25.84-17.22,9.37,18.73c10.23,20.46,30.8,33.17,53.67,33.17h83.69l-27.41-54.81c-3.6-7.2-8.48-13.45-14.29-18.51h0Zm-261.13-102.65h-58.16c.26-24.3,20.11-43.99,44.48-43.99h58.17c-.26,24.3-20.11,43.99-44.48,43.99ZM75.81,50.47c24.66,0,48.95,4.45,70.65,12.11-41.22,20.85-75.62,52.88-99.42,90.98-1.99-36.41,8.13-72.95,28.76-103.09Zm237.85,380.99c-78.55,52.36-183.88,34.69-239.8-40.21-22.54-30.19-34.63-66.41-34.96-104.75-1.07-121.2,97.87-221.21,219.9-221.21,49.64,0,96.95,20.67,140.6,61.44,22.49,21,38.22,42.28,46.12,53.99-7.04,6.54-19.38,16.59-37.58,26.56-28.29,15.5-76.95,33.97-148.16,33.97h-73.81c-40.7,0-73.81,33.11-73.81,73.81v28.84h50.09c11.49,26.38,37.69,43.99,67.23,43.99h9.24c34.29,0,68.31,10.18,97.01,28.85l-22.06,14.71Zm135.19,17.4l6.18,12.37h-36.23c-11.7,0-22.21-6.5-27.44-16.96l-11-22.01c-.42-12.45-.32-9.51-.32-9.41l11.32-22.64c5.23-10.46,15.75-16.96,27.44-16.96h36.23l-6.18,12.37c-5.23,10.46-15.75,16.96-27.44,16.96v29.33c11.7,0,22.21,6.5,27.44,16.96h0Z"/>
  </g>
</svg>