<svg height="300" viewBox="0 0 384 384" width="300" xmlns="http://www.w3.org/2000/svg" version="1.1" xmlns:xlink="http://www.w3.org/1999/xlink" xmlns:svgjs="http://svgjs.dev/svgjs"><g width="100%" height="100%" transform="matrix(1,0,0,1,0,0)"><path d="m80 384h224c44.113281 0 80-35.886719 80-80v-48h-176v-32h157.894531l-149.328125-224h-49.117187l-149.34375 224h157.894531v32h-176v48c0 44.113281 35.886719 80 80 80zm128-339.160156 98.105469 147.160156h-98.105469zm-130.105469 147.160156 98.105469-147.160156v147.160156zm-45.894531 96h320v16c0 26.472656-21.527344 48-48 48h-224c-26.472656 0-48-21.527344-48-48zm0 0" fill="#ffffff" fill-opacity="1" data-original-color="#000000ff" stroke="none" stroke-opacity="1"/></g></svg>