<svg id="Layer_1" enable-background="new 0 0 512 512" viewBox="0 0 512 512" xmlns="http://www.w3.org/2000/svg" xmlns:xlink="http://www.w3.org/1999/xlink"><linearGradient id="lg1"><stop offset="0" stop-color="#78ec0e"/><stop offset=".5" stop-color="#20d43a"/><stop offset="1" stop-color="#099924"/></linearGradient><linearGradient id="SVGID_1_" gradientTransform="matrix(1 0 0 -1 0 512)" gradientUnits="userSpaceOnUse" x1="256.165" x2="256.165" xlink:href="#lg1" y1="512.7" y2="7.96"/><linearGradient id="SVGID_00000008835052896598383950000000152323938028672146_" gradientTransform="matrix(1 0 0 -1 0 512)" gradientUnits="userSpaceOnUse" x1="256.324" x2="256.324" xlink:href="#lg1" y1="512.7" y2="7.96"/><linearGradient id="SVGID_00000075125968214340804130000017688755520876315012_" gradientTransform="matrix(1 0 0 -1 0 512)" gradientUnits="userSpaceOnUse" x1="256" x2="256" xlink:href="#lg1" y1="512.7" y2="7.96"/><g id="Layer_2_00000129886668964432799340000001690621009619935104_"><g id="Layer_1_copy"><g id="_131"><path d="m89.3 216.9c6.7 0 13.1-2.6 17.8-7.4l148.9-148.9 148.9 148.9c9.6 10 25.5 10.3 35.5.7s10.3-25.5.7-35.5c-.2-.2-.4-.4-.6-.6l-166.7-166.8c-9.8-9.8-25.7-9.8-35.5 0l-166.8 166.8c-9.8 9.8-9.8 25.7 0 35.5 4.8 4.7 11.1 7.3 17.8 7.3z" fill="url(#SVGID_1_)"/><path d="m273.8 154.9c-9.8-9.8-25.7-9.8-35.5 0l-166.8 166.7c-9.6 10-9.3 25.9.7 35.5 9.7 9.4 25.1 9.4 34.9 0l148.9-148.9 148.9 148.9c9.6 10 25.5 10.3 35.5.7s10.3-25.5.7-35.5c-.2-.2-.4-.4-.6-.6z" fill="url(#SVGID_00000008835052896598383950000000152323938028672146_)"/><path d="m273.8 302.5c-9.8-9.8-25.7-9.8-35.5 0l-166.8 166.6c-9.7 9.9-9.6 25.8.3 35.5 9.8 9.6 25.5 9.6 35.3 0l148.9-149 148.9 149c9.9 9.7 25.8 9.6 35.5-.3 9.6-9.8 9.6-25.5 0-35.3z" fill="url(#SVGID_00000075125968214340804130000017688755520876315012_)"/></g></g></g></svg>