<?xml version="1.0" encoding="UTF-8"?>
<svg id="Capa_1" data-name="Capa 1" xmlns="http://www.w3.org/2000/svg" xmlns:xlink="http://www.w3.org/1999/xlink" viewBox="0 0 512 512">
  <defs>
    <style>
      .cls-1 {
        filter: url(#outer-glow-1);
      }

      .cls-2 {
        fill: #1dadda;
      }
    </style>
    <filter id="outer-glow-1" filterUnits="userSpaceOnUse">
      <feOffset dx="0" dy="0"/>
      <feGaussianBlur result="blur" stdDeviation="28.35"/>
      <feFlood flood-color="#1dacd9" flood-opacity=".75"/>
      <feComposite in2="blur" operator="in"/>
      <feComposite in="SourceGraphic"/>
    </filter>
  </defs>
  <g class="cls-1">
    <path class="cls-2" d="m164.24,167.94h-29.33v-29.33h29.33v29.33Z"/>
    <path class="cls-2" d="m51.21,417.23c-5.81,5.06-10.69,11.31-14.29,18.51l-27.41,54.81h83.69c22.88,0,43.44-12.71,53.67-33.17l9.37-18.73,25.84,17.22c35.43,23.62,75.56,34.99,115.21,34.99,108.34,0,197.1-82.99,204.63-191.02h.45c-.49-7.15,3.89-48.41-14.79-99.85,1.4-6.24,2.95-14.8,4.63-25.47,8.12-51.77-5.24-105.47-36.64-147.35l-4.19-5.58-6.97-.27c-39.82-1.58-82.78,8.03-116.9,25.87-23.75-7.38-48.73-11.22-74.31-11.22-56.78,0-112.55,24.19-161.28,69.96-36.3,34.1-55.92,67.96-56.74,69.38l-4.97,8.66,6.23,7.8c2.49,3.12,60.95,74.25,202.1,78.62.15,40.57,33.2,73.53,73.8,73.53h2.99c-8.14,9.1-19.95,14.66-32.81,14.66h-9.24c-41.71,0-83.07,12.92-117.41,36.54l-9.01-18.03c-10.23-20.46-30.8-33.17-53.67-33.17H9.51s27.41,54.81,27.41,54.81c3.6,7.2,8.48,13.44,14.29,18.51h0Zm216.65-146.64h58.17c24.36,0,44.22,19.69,44.48,43.99-22.12,0-36.71,0-58.16,0-24.36,0-44.22-19.69-44.48-43.99Zm197.09-117.03c-23.8-38.1-58.2-70.14-99.42-90.98,21.7-7.66,46-12.11,70.65-12.11,20.63,30.14,30.76,66.68,28.76,103.09ZM176.28,416.75c28.7-18.67,62.72-28.85,97.01-28.85h9.24c29.53,0,55.74-17.61,67.23-43.99h50.09s0-28.84,0-28.84c0-40.7-33.11-73.81-73.81-73.81h-73.81c-71.2,0-119.87-18.47-148.16-33.97-18.2-9.97-30.54-20.03-37.58-26.56,7.9-11.71,23.63-32.99,46.12-53.99,43.65-40.77,90.95-61.44,140.6-61.44,122.03,0,220.97,100.01,219.9,221.21-.34,38.33-12.43,74.55-34.96,104.75-55.91,74.9-161.25,92.57-239.8,40.21l-22.06-14.71Zm-113.13,32.1c5.23-10.46,15.75-16.96,27.44-16.96v-29.33c-11.7,0-22.21-6.5-27.44-16.96l-6.18-12.37h36.23c11.7,0,22.21,6.5,27.44,16.96l11.32,22.64c0-.1.1-3.04-.32,9.41l-11,22.01c-5.23,10.46-15.75,16.96-27.44,16.96h-36.23s6.18-12.37,6.18-12.37h0Z"/>
  </g>
</svg>